<?xml version="1.0" standalone="no"?>
<!DOCTYPE svg PUBLIC "-//W3C//DTD SVG 20010904//EN"
 "http://www.w3.org/TR/2001/REC-SVG-20010904/DTD/svg10.dtd">
<svg version="1.0" xmlns="http://www.w3.org/2000/svg"
 width="491.000000pt" height="491.000000pt" viewBox="0 0 491.000000 491.000000"
 preserveAspectRatio="xMidYMid meet">
<metadata>
Created by potrace 1.11, written by Peter Selinger 2001-2013
</metadata>
<g transform="translate(0.000000,491.000000) scale(0.100000,-0.100000)"
fill="#000000" stroke="none">
<path d="M2360 4689 c-276 -227 -353 -325 -440 -562 -27 -77 -89 -301 -105
-385 -3 -15 -7 -38 -10 -52 -2 -14 -16 -77 -31 -140 -14 -63 -28 -126 -30
-140 -3 -14 -8 -34 -11 -45 -4 -11 -8 -26 -9 -33 -10 -53 -75 -235 -116 -322
-28 -58 -61 -127 -73 -155 -13 -27 -53 -112 -89 -189 -36 -76 -66 -139 -66
-141 0 -1 -31 -67 -68 -146 -38 -79 -82 -173 -99 -209 l-31 -65 32 -7 c17 -3
42 -5 55 -5 24 2 36 28 347 742 70 162 73 166 173 265 135 134 146 155 167
315 11 89 27 158 49 220 114 313 290 633 532 967 l63 88 -31 35 c-27 31 -36
35 -78 34 -42 0 -54 -7 -131 -70z"/>
<path d="M2915 4691 c-100 -62 -146 -80 -237 -95 -70 -11 -175 -134 -284 -331
-81 -146 -108 -201 -179 -365 -36 -85 -71 -164 -76 -175 -28 -62 -60 -162 -64
-203 -3 -26 -8 -65 -11 -87 -11 -75 -12 -90 -19 -155 -4 -36 -8 -76 -10 -90
-2 -14 -6 -47 -10 -74 -10 -85 -64 -172 -290 -476 -193 -260 -257 -355 -305
-455 -60 -126 -60 -128 7 -154 31 -12 60 -18 64 -14 4 4 83 139 175 298 369
642 311 556 451 675 68 58 133 113 143 123 35 32 61 98 75 192 14 92 37 172
62 215 42 71 233 340 267 376 6 6 25 29 41 50 17 21 44 54 60 73 17 20 40 47
51 61 55 65 265 302 319 358 33 35 61 68 63 73 8 22 -43 144 -76 181 -33 36
-80 69 -99 68 -4 -1 -57 -31 -118 -69z"/>
<path d="M1932 4521 c-29 -60 -74 -135 -100 -167 -51 -64 -122 -108 -159 -99
-23 5 -26 1 -38 -65 -13 -66 -37 -135 -77 -220 -31 -65 -52 -94 -88 -125 -43
-36 -58 -56 -66 -90 -3 -13 -23 -112 -29 -145 -3 -14 -7 -36 -10 -50 -2 -13
-7 -42 -10 -65 -4 -22 -10 -56 -15 -75 -5 -19 -11 -51 -14 -70 -3 -19 -15 -82
-26 -140 -12 -58 -23 -120 -26 -139 -10 -59 -12 -68 -58 -223 -61 -205 -192
-654 -204 -700 l-10 -37 50 4 c60 6 57 4 64 41 32 181 96 340 293 728 138 273
151 302 200 471 64 221 148 509 207 715 54 188 67 225 110 316 36 75 106 164
130 164 8 0 14 4 14 9 0 15 -57 71 -72 71 -7 0 -37 -49 -66 -109z"/>
<path d="M3529 4475 c-25 -7 -75 -15 -110 -19 -112 -10 -159 -30 -225 -93
-174 -169 -545 -637 -687 -868 -51 -84 -84 -186 -102 -315 -12 -89 -44 -226
-65 -282 -16 -44 -98 -153 -379 -505 -197 -246 -353 -450 -347 -452 6 -2 30
-19 54 -38 42 -35 43 -35 64 -17 11 11 85 105 164 209 79 105 219 289 311 409
l168 219 145 80 c80 43 153 87 164 96 10 9 41 62 68 119 37 77 67 122 116 175
37 40 88 94 114 122 25 27 59 64 74 80 241 264 273 296 638 635 38 36 78 73
88 83 15 14 17 27 12 65 -18 140 -68 277 -106 291 -44 16 -113 19 -159 6z"/>
<path d="M3774 3964 c-38 -32 -80 -68 -93 -79 -178 -148 -251 -215 -416 -380
-270 -269 -278 -280 -432 -639 -95 -223 -139 -312 -177 -363 -62 -84 -328
-352 -456 -458 -52 -44 -97 -82 -100 -85 -3 -3 -63 -50 -133 -104 -122 -93
-127 -99 -109 -114 10 -10 30 -34 46 -54 l27 -36 168 166 c155 154 287 278
467 437 6 6 53 48 104 95 104 95 78 83 560 255 186 66 228 85 312 141 200 133
382 295 706 627 l113 116 -6 68 c-3 37 -8 88 -10 113 -3 25 -7 71 -10 103 -13
142 -17 173 -27 184 -9 11 -76 37 -129 49 -13 3 -94 8 -180 11 l-156 5 -69
-58z"/>
<path d="M4365 3354 c-82 -97 -220 -238 -375 -385 -46 -43 -236 -199 -317
-260 -179 -134 -214 -153 -398 -208 -197 -60 -204 -65 -301 -224 -74 -122
-102 -162 -130 -191 -13 -13 -200 -146 -414 -296 -215 -150 -393 -277 -396
-281 -2 -5 7 -31 21 -59 l25 -50 93 68 c119 89 367 273 584 433 94 70 189 137
210 147 63 33 168 60 353 92 213 37 288 58 405 116 107 53 219 132 415 292
108 89 396 309 428 328 19 12 102 351 102 417 -1 66 -63 106 -179 114 l-76 5
-50 -58z"/>
<path d="M4565 2753 c-83 -58 -143 -103 -384 -291 -176 -138 -365 -265 -434
-290 -29 -11 -101 -32 -162 -46 -288 -70 -298 -75 -470 -241 -138 -133 -173
-157 -475 -318 -47 -24 -168 -90 -269 -146 -102 -56 -187 -101 -190 -101 -3 0
-16 -8 -28 -18 -21 -15 -22 -20 -11 -55 6 -20 17 -37 24 -37 6 0 115 59 240
132 126 72 239 136 251 142 13 6 23 14 23 19 0 4 4 7 9 7 5 0 95 49 199 110
104 60 214 119 243 131 83 33 271 92 409 129 581 153 726 212 916 367 75 60
93 79 204 202 90 102 118 146 127 205 7 43 -3 67 -46 114 -54 57 -76 55 -176
-15z"/>
<path d="M4653 2279 c-33 -59 -116 -145 -185 -192 -68 -47 -234 -123 -351
-162 -59 -20 -231 -67 -382 -105 -322 -82 -635 -188 -685 -231 -18 -16 -71
-65 -117 -110 -47 -44 -108 -96 -137 -114 -28 -19 -163 -84 -301 -145 -137
-61 -269 -120 -292 -131 -41 -18 -43 -21 -43 -64 l0 -46 28 14 c15 8 59 29 97
47 39 18 115 54 170 80 55 26 172 78 260 115 143 60 177 74 250 106 322 138
408 169 665 234 346 89 637 193 704 253 10 9 27 37 38 61 22 53 37 68 143 148
89 67 151 130 166 171 14 36 18 82 9 106 -5 16 -12 10 -37 -35z"/>
<path d="M895 1975 c-80 -61 -151 -130 -187 -183 l-30 -44 31 7 c58 12 204 12
266 -1 145 -30 272 -98 394 -209 24 -22 101 -98 170 -168 l127 -129 137 92
c75 50 139 96 142 101 14 21 -78 134 -229 283 -194 191 -389 277 -661 292
l-100 5 -60 -46z"/>
<path d="M612 1626 c-420 -262 -558 -665 -357 -1044 171 -321 497 -497 828
-448 64 10 205 66 290 117 267 159 387 472 292 762 -47 146 -112 252 -221 362
-174 174 -408 276 -669 291 l-90 6 -73 -46z"/>
<path d="M4154 1660 c-22 -21 -179 -91 -279 -124 -60 -19 -213 -60 -340 -91
-478 -114 -609 -161 -760 -270 -57 -41 -68 -56 -37 -49 23 5 420 85 452 90 40
8 473 94 497 99 12 3 50 33 83 66 61 61 62 61 233 118 l172 58 1 52 c1 53 -5
67 -22 51z"/>
</g>
</svg>
